<svg xmlns="http://www.w3.org/2000/svg" xmlns:xlink="http://www.w3.org/1999/xlink" viewBox="0 0 90 26" fill="#fff" fill-rule="evenodd" stroke="#000" stroke-linecap="round" stroke-linejoin="round"><use xlink:href="#A" x=".5" y=".5"/><symbol id="A" overflow="visible"><path d="M9.457.705v3.022h-2.99v20.119H3.022V3.727H0V.705h9.457zm4.16 5.623h.065c.455-.877 1.3-1.3 2.146-1.3 2.373 0 2.405 1.397 2.405 3.348v15.47h-3.12V8.83c0-.52-.032-1.138-.683-1.138-.78 0-.813.618-.813 1.138v15.016h-3.12V.705h3.12v5.623zm6.11 17.518V5.255h3.12v18.591h-3.12zm4.615-18.591h3.12v1.073h.065c.455-.877 1.3-1.3 2.145-1.3 2.373 0 2.405 1.397 2.405 3.348v15.47h-3.12V8.83c0-.52-.032-1.138-.683-1.138-.78 0-.813.618-.813 1.138v15.016h-3.12V5.255zm9.1 18.591V.705h3.12v13.098h.13l1.69-8.548h3.12l-1.788 8.386 1.885 10.205h-3.186l-1.722-9.783h-.13v9.783h-3.119zm12.675-3.738c0 1.17.357 1.43 1.072 1.43.683 0 1.04-.26 1.04-1.43V17.67c0-3.251-5.557-6.436-5.557-10.206V4.15c0-3.022 2.373-3.9 4.485-3.9 2.146 0 4.518.877 4.518 3.9v4.875H48.23V4.442c0-1.17-.357-1.43-1.04-1.43-.715 0-1.072.26-1.072 1.43v2.86c0 1.657 5.558 6.663 5.558 9.003V20.4c0 3.022-2.372 3.9-4.518 3.9-2.112 0-4.485-.878-4.485-3.9v-5.33h3.445v5.038zm10.238-13.78h.064c.455-.877 1.3-1.3 2.146-1.3 2.372 0 2.405 1.397 2.405 3.348v15.47h-3.12V8.83c0-.52-.033-1.138-.683-1.138-.78 0-.813.618-.813 1.138v15.016h-3.12V.705h3.12v5.623zm9.229-2.308h-3.12V.705h3.12V4.02zm-3.12 19.826V5.255h3.12v18.591h-3.12zm12.35-7.313v4.42c0 1.918-1.495 3.12-3.868 3.12s-3.867-1.202-3.867-3.12V8.147c0-1.917 1.495-3.12 3.867-3.12s3.868 1.203 3.868 3.12v6.825h-4.615v5.915c0 .846.292.91.747.91s.748-.064.748-.91v-4.354h3.12zm-3.12-8.321c0-.845-.293-.91-.748-.91s-.747.065-.747.91v4.583h1.495V8.212zm4.615 15.634V.705h3.12v23.141h-3.12zm12.35 0h-3.12v-1.105h-.065c-.487.683-1.3 1.333-2.242 1.333-1.203 0-2.308-.65-2.308-2.178V7.205c0-1.527 1.104-2.178 2.308-2.178 1.007 0 1.787.683 2.242 1.397h.065V.704h3.12v23.142zm-4.615-3.576c0 .975.357 1.138.747 1.138s.748-.163.748-1.138V8.83c0-.975-.358-1.138-.748-1.138s-.747.163-.747 1.138v11.44z" fill="#000" fill-rule="nonzero" stroke="none"/><circle cx="21.25" cy="2" fill="#e32726" stroke="none" r="2"/></symbol></svg>